<svg width="192" height="192" viewBox="0 0 192 192" fill="none" xmlns="http://www.w3.org/2000/svg">
<g clip-path="url(#clip0_1802_1393)">
<path d="M89.333 81.5359H86.4987V78.7008C86.4987 77.5549 85.5694 76.6257 84.4235 76.6257C83.2777 76.6257 82.3492 77.5549 82.3492 78.7008V81.5359H79.5133C78.3682 81.5359 77.439 82.4651 77.439 83.611C77.439 84.7569 78.3682 85.6854 79.5133 85.6854H82.3492V88.5204C82.3492 89.6663 83.2777 90.5956 84.4235 90.5956C85.5694 90.5956 86.4987 89.6663 86.4987 88.5204V85.6854H89.333C90.4788 85.6854 91.4073 84.7569 91.4073 83.611C91.4073 82.4651 90.4788 81.5359 89.333 81.5359Z" fill="url(#paint0_linear_1802_1393)"/>
<path d="M112.487 81.5359H102.667C101.522 81.5359 100.593 82.4652 100.593 83.611C100.593 84.7569 101.522 85.6854 102.667 85.6854H112.487C113.633 85.6854 114.561 84.7569 114.561 83.611C114.561 82.4652 113.633 81.5359 112.487 81.5359Z" fill="url(#paint1_linear_1802_1393)"/>
<path d="M117.546 42.412H74.4538C70.8088 42.412 67.8432 45.3777 67.8432 49.0234V92.1162C67.8432 95.7612 70.8088 98.7268 74.4538 98.7268H109.232C110.72 98.7268 112.14 99.2832 113.162 100.301C115.134 102.262 117.951 105.072 118.592 105.743C119.6 106.799 120.752 107.231 121.856 107.231C122.96 107.231 124.158 106.079 124.158 104.063C124.158 102.432 124.158 94.9206 124.158 92.1166C124.158 91.4565 124.158 91.0552 124.158 91.0552V49.0234C124.158 45.3777 121.192 42.412 117.546 42.412ZM74.4538 46.5619H117.546C118.904 46.5619 120.008 47.6659 120.008 49.0234V68.4948H71.9919V49.0234C71.9919 47.6659 73.0959 46.5619 74.4538 46.5619ZM74.4538 94.5777C73.0963 94.5777 71.9923 93.4729 71.9923 92.1162V72.6447H120.008V92.1162C120.008 93.4729 118.904 94.5777 117.546 94.5777H74.4538Z" fill="url(#paint2_linear_1802_1393)"/>
<path d="M96.0004 64.5454C97.675 64.5454 99.3508 63.9625 100.717 62.7947C101.277 62.3163 101.343 61.4742 100.865 60.9139C100.386 60.3537 99.5443 60.2884 98.9841 60.7661C97.2553 62.2437 94.7451 62.2437 93.0163 60.7661C92.4561 60.2876 91.6147 60.3537 91.1363 60.9139C90.657 61.4742 90.7238 62.3163 91.2841 62.7947C92.65 63.9625 94.3258 64.5454 96.0004 64.5454Z" fill="url(#paint3_linear_1802_1393)"/>
<path d="M86.1731 57.1277C87.3189 57.1277 88.2482 56.1984 88.2482 55.0533C88.2482 53.9075 87.3189 52.9782 86.1731 52.9782C85.0272 52.9782 84.0987 53.9075 84.0987 55.0533C84.0987 56.1988 85.0272 57.1277 86.1731 57.1277Z" fill="url(#paint4_linear_1802_1393)"/>
<path d="M105.827 57.1277C106.973 57.1277 107.901 56.1984 107.901 55.0533C107.901 53.9075 106.973 52.9782 105.827 52.9782C104.681 52.9782 103.752 53.9075 103.752 55.0533C103.751 56.1988 104.681 57.1277 105.827 57.1277Z" fill="url(#paint5_linear_1802_1393)"/>
<path d="M40.8688 137.643V122.28H50.3387V124.974H43.9623V128.425H49.6021V131.119H43.9623V134.949H50.3387V137.643H40.8688ZM52.3507 137.643L56.349 131.645L52.6242 126.068H56.1386L57.5696 128.383C57.6818 128.566 57.7871 128.769 57.8853 128.993C57.9835 129.218 58.0606 129.4 58.1167 129.541C58.1729 129.4 58.25 129.218 58.3482 128.993C58.4605 128.769 58.5657 128.566 58.6639 128.383L60.0949 126.068H63.6092L59.9055 131.645L63.8828 137.643H60.3685L58.6849 134.907C58.5727 134.71 58.4605 134.507 58.3482 134.297C58.25 134.072 58.1729 133.89 58.1167 133.749C58.0606 133.89 57.9835 134.072 57.8853 134.297C57.7871 134.507 57.6818 134.71 57.5696 134.907L55.865 137.643H52.3507ZM65.8106 141.43V126.068H68.862V128.278H69.5986L68.862 129.015C68.862 128.018 69.1356 127.247 69.6827 126.7C70.2299 126.138 70.9805 125.858 71.9345 125.858C73.0989 125.858 74.0319 126.272 74.7333 127.099C75.4348 127.913 75.7855 129.007 75.7855 130.382V133.329C75.7855 134.24 75.6242 135.04 75.3015 135.728C74.9929 136.401 74.5509 136.927 73.9757 137.306C73.4005 137.671 72.7201 137.853 71.9345 137.853C70.9805 137.853 70.2299 137.579 69.6827 137.032C69.1356 136.471 68.862 135.692 68.862 134.696L69.5986 135.433H68.862L68.9673 138.274V141.43H65.8106ZM70.7981 135.117C71.3873 135.117 71.8363 134.956 72.1449 134.633C72.4676 134.297 72.6289 133.827 72.6289 133.223V130.488C72.6289 129.87 72.4676 129.4 72.1449 129.078C71.8363 128.755 71.3873 128.594 70.7981 128.594C70.2229 128.594 69.7739 128.762 69.4513 129.099C69.1286 129.421 68.9673 129.884 68.9673 130.488V133.223C68.9673 133.827 69.1286 134.297 69.4513 134.633C69.7739 134.956 70.2229 135.117 70.7981 135.117ZM83.3742 137.853C82.3501 137.853 81.4522 137.664 80.6806 137.285C79.923 136.892 79.3337 136.352 78.9129 135.664C78.506 134.963 78.3026 134.149 78.3026 133.223V130.488C78.3026 129.562 78.506 128.755 78.9129 128.068C79.3337 127.366 79.923 126.826 80.6806 126.447C81.4522 126.054 82.3501 125.858 83.3742 125.858C84.3983 125.858 85.2822 126.054 86.0258 126.447C86.7833 126.826 87.3656 127.366 87.7724 128.068C88.1933 128.755 88.4037 129.562 88.4037 130.488V132.592H81.3119V133.223C81.3119 133.953 81.4873 134.507 81.838 134.886C82.1887 135.251 82.7148 135.433 83.4163 135.433C83.9073 135.433 84.3001 135.349 84.5948 135.18C84.9034 135.012 85.1068 134.781 85.205 134.486H88.2985C88.046 135.496 87.4708 136.31 86.5729 136.927C85.689 137.544 84.6228 137.853 83.3742 137.853ZM85.3944 130.972V130.445C85.3944 129.73 85.2261 129.183 84.8894 128.804C84.5667 128.425 84.0616 128.236 83.3742 128.236C82.6868 128.236 82.1677 128.432 81.8169 128.825C81.4802 129.218 81.3119 129.772 81.3119 130.488V130.803L85.6049 130.761L85.3944 130.972ZM91.0471 137.643V126.068H94.0984V128.278H95.0244L94.0984 129.015C94.0984 128.032 94.379 127.261 94.9402 126.7C95.5014 126.138 96.259 125.858 97.213 125.858C98.3353 125.858 99.2332 126.251 99.9066 127.036C100.594 127.822 100.938 128.867 100.938 130.172V137.643H97.7812V130.488C97.7812 129.884 97.6198 129.421 97.2971 129.099C96.9885 128.762 96.5466 128.594 95.9714 128.594C95.4102 128.594 94.9753 128.762 94.6666 129.099C94.358 129.421 94.2037 129.884 94.2037 130.488V137.643H91.0471ZM108.106 137.853C107.152 137.853 106.317 137.706 105.601 137.411C104.886 137.102 104.325 136.682 103.918 136.148C103.525 135.615 103.329 134.991 103.329 134.276H106.485C106.485 134.612 106.632 134.886 106.927 135.096C107.236 135.293 107.629 135.391 108.106 135.391H109.031C109.607 135.391 110.042 135.286 110.336 135.075C110.645 134.865 110.799 134.57 110.799 134.191C110.799 133.841 110.666 133.574 110.399 133.392C110.133 133.195 109.719 133.062 109.158 132.992L107.811 132.823C106.366 132.641 105.314 132.29 104.654 131.771C103.995 131.252 103.665 130.46 103.665 129.393C103.665 128.271 104.051 127.401 104.823 126.784C105.594 126.167 106.724 125.858 108.211 125.858H109.01C110.427 125.858 111.557 126.167 112.399 126.784C113.24 127.401 113.661 128.229 113.661 129.267H110.505C110.505 128.986 110.364 128.762 110.084 128.594C109.817 128.411 109.459 128.32 109.01 128.32H108.211C107.692 128.32 107.313 128.411 107.074 128.594C106.836 128.762 106.717 129.022 106.717 129.372C106.717 129.695 106.822 129.94 107.032 130.109C107.257 130.277 107.608 130.396 108.085 130.467L109.537 130.656C110.996 130.838 112.076 131.203 112.777 131.75C113.493 132.297 113.851 133.111 113.851 134.191C113.851 135.37 113.444 136.275 112.63 136.906C111.816 137.537 110.617 137.853 109.031 137.853H108.106ZM116.368 137.643V134.781H120.366V128.909H116.894V126.068H123.312V134.781H126.679V137.643H116.368ZM121.629 124.238C121.053 124.238 120.59 124.09 120.24 123.796C119.903 123.501 119.735 123.101 119.735 122.596C119.735 122.091 119.903 121.691 120.24 121.397C120.59 121.102 121.053 120.955 121.629 120.955C122.204 120.955 122.66 121.102 122.997 121.397C123.347 121.691 123.523 122.091 123.523 122.596C123.523 123.101 123.347 123.501 122.997 123.796C122.66 124.09 122.204 124.238 121.629 124.238ZM131.616 137.643V130.277H128.544V127.436H131.616V125.858C131.616 124.778 131.981 123.915 132.711 123.269C133.454 122.61 134.422 122.28 135.615 122.28H139.003V125.016H135.72C135.439 125.016 135.208 125.107 135.025 125.29C134.857 125.458 134.773 125.683 134.773 125.963V127.436H139.003V130.277H134.773V137.643H131.616ZM143.435 141.43L145.013 137.074L140.678 126.068H144.108L145.855 131.119C145.981 131.498 146.107 131.961 146.234 132.508C146.374 133.041 146.479 133.476 146.549 133.813C146.62 133.476 146.718 133.041 146.844 132.508C146.984 131.961 147.118 131.498 147.244 131.119L148.927 126.068H152.21L146.739 141.43H143.435Z" fill="#37374F"/>
<path d="M55.1021 147.813V143.655H56.2469C56.6191 143.655 56.9115 143.752 57.1241 143.945C57.3368 144.135 57.4431 144.397 57.4431 144.731C57.4431 144.921 57.4032 145.088 57.3235 145.233C57.2475 145.373 57.1374 145.483 56.9931 145.563C56.8526 145.639 56.6817 145.675 56.4805 145.671V145.591C56.6969 145.591 56.883 145.635 57.0387 145.722C57.1982 145.806 57.3216 145.929 57.4089 146.093C57.4963 146.252 57.5399 146.442 57.5399 146.662C57.5399 146.898 57.4906 147.103 57.3918 147.277C57.2931 147.448 57.1526 147.581 56.9703 147.676C56.7881 147.767 56.5697 147.813 56.3153 147.813H55.1021ZM55.5406 147.403H56.2754C56.5298 147.403 56.7292 147.336 56.8735 147.203C57.0216 147.067 57.0956 146.882 57.0956 146.651C57.0956 146.412 57.0216 146.22 56.8735 146.076C56.7292 145.927 56.5298 145.853 56.2754 145.853H55.5406V147.403ZM55.5406 145.46H56.2469C56.4786 145.46 56.6608 145.398 56.7937 145.272C56.9267 145.147 56.9931 144.976 56.9931 144.76C56.9931 144.543 56.9267 144.374 56.7937 144.253C56.6646 144.128 56.4824 144.065 56.2469 144.065H55.5406V145.46ZM59.6623 147.87C59.3091 147.87 59.0262 147.763 58.8136 147.551C58.6047 147.338 58.5003 147.05 58.5003 146.685V144.68H58.9503V146.685C58.9503 146.932 59.0129 147.125 59.1383 147.266C59.2674 147.403 59.442 147.471 59.6623 147.471C59.8863 147.471 60.0629 147.403 60.192 147.266C60.3211 147.125 60.3857 146.932 60.3857 146.685V144.68H60.8356V146.685C60.8356 147.05 60.7293 147.338 60.5167 147.551C60.304 147.763 60.0192 147.87 59.6623 147.87ZM62.9295 147.87C62.6182 147.87 62.3656 147.765 62.172 147.556C61.9821 147.348 61.8872 147.067 61.8872 146.713V145.785C61.8872 145.428 61.9821 145.145 62.172 144.936C62.3618 144.727 62.6144 144.623 62.9295 144.623C63.1915 144.623 63.4023 144.695 63.5618 144.839C63.7251 144.984 63.8067 145.177 63.8067 145.42L63.6871 145.233H63.7953L63.7896 144.549V143.655H64.2396V147.813H63.7896V147.26H63.67L63.8067 147.072C63.8067 147.319 63.7251 147.515 63.5618 147.659C63.4023 147.799 63.1915 147.87 62.9295 147.87ZM63.0719 147.477C63.296 147.477 63.4706 147.408 63.596 147.272C63.7251 147.131 63.7896 146.938 63.7896 146.691V145.802C63.7896 145.555 63.7251 145.364 63.596 145.227C63.4706 145.086 63.296 145.016 63.0719 145.016C62.8441 145.016 62.6656 145.084 62.5365 145.221C62.4074 145.358 62.3429 145.551 62.3429 145.802V146.691C62.3429 146.941 62.4074 147.135 62.5365 147.272C62.6656 147.408 62.8441 147.477 63.0719 147.477ZM65.724 148.838V148.428H66.6752C66.8537 148.428 66.9847 148.386 67.0683 148.303C67.1556 148.219 67.1993 148.092 67.1993 147.921V147.556L67.2107 146.964H67.1081L67.2164 146.833C67.2164 147.069 67.1385 147.256 66.9828 147.397C66.8271 147.537 66.6183 147.608 66.3563 147.608C66.0373 147.608 65.7848 147.503 65.5987 147.294C65.4126 147.082 65.3196 146.799 65.3196 146.446V145.779C65.3196 145.426 65.4126 145.145 65.5987 144.936C65.7848 144.727 66.0373 144.623 66.3563 144.623C66.6183 144.623 66.8271 144.693 66.9828 144.834C67.1385 144.971 67.2164 145.157 67.2164 145.392L67.1138 145.261H67.205V144.68H67.6493V147.921C67.6493 148.21 67.5638 148.434 67.3929 148.593C67.2259 148.756 66.9866 148.838 66.6752 148.838H65.724ZM66.4873 147.215C66.7113 147.215 66.886 147.146 67.0113 147.01C67.1404 146.869 67.205 146.675 67.205 146.429V145.802C67.205 145.555 67.1404 145.364 67.0113 145.227C66.886 145.086 66.7113 145.016 66.4873 145.016C66.2594 145.016 66.0829 145.084 65.9576 145.221C65.8322 145.358 65.7696 145.551 65.7696 145.802V146.429C65.7696 146.679 65.8322 146.873 65.9576 147.01C66.0829 147.146 66.2594 147.215 66.4873 147.215ZM69.914 147.87C69.671 147.87 69.4602 147.822 69.2818 147.727C69.1033 147.629 68.9647 147.49 68.866 147.312C68.7672 147.133 68.7179 146.926 68.7179 146.691V145.802C68.7179 145.563 68.7672 145.356 68.866 145.181C68.9647 145.003 69.1033 144.866 69.2818 144.771C69.4602 144.672 69.671 144.623 69.914 144.623C70.157 144.623 70.3678 144.672 70.5463 144.771C70.7247 144.866 70.8633 145.003 70.9621 145.181C71.0608 145.356 71.1102 145.563 71.1102 145.802V146.355H69.1621V146.691C69.1621 146.945 69.2267 147.143 69.3558 147.283C69.4887 147.42 69.6748 147.488 69.914 147.488C70.1153 147.488 70.2786 147.448 70.4039 147.368C70.533 147.289 70.6146 147.173 70.6488 147.021H71.0988C71.057 147.283 70.9298 147.49 70.7171 147.642C70.5045 147.794 70.2368 147.87 69.914 147.87ZM70.6659 146.053V145.802C70.6659 145.548 70.6013 145.352 70.4722 145.215C70.3431 145.075 70.157 145.005 69.914 145.005C69.6748 145.005 69.4887 145.075 69.3558 145.215C69.2267 145.352 69.1621 145.548 69.1621 145.802V146.001H70.7114L70.6659 146.053ZM73.6711 147.813C73.4091 147.813 73.2059 147.744 73.0616 147.608C72.9174 147.467 72.8452 147.27 72.8452 147.015V145.09H71.9566V144.68H72.8452V143.797H73.3009V144.68H74.5597V145.09H73.3009V147.015C73.3009 147.274 73.4243 147.403 73.6711 147.403H74.5027V147.813H73.6711ZM79.7442 147.87C79.4443 147.87 79.2088 147.786 79.0379 147.619C78.8671 147.452 78.7816 147.222 78.7816 146.93V146.241C78.7816 146.02 78.8367 145.838 78.9468 145.694C79.0607 145.55 79.2202 145.453 79.4253 145.403L79.3854 145.386C79.2601 145.219 79.169 145.065 79.112 144.925C79.0588 144.784 79.0322 144.644 79.0322 144.503C79.0322 144.325 79.074 144.167 79.1576 144.031C79.2411 143.894 79.3569 143.788 79.505 143.712C79.6569 143.636 79.8335 143.598 80.0347 143.598C80.2474 143.598 80.4316 143.64 80.5872 143.723C80.7467 143.803 80.8682 143.915 80.9518 144.059C81.0391 144.203 81.0828 144.374 81.0828 144.572H80.6271C80.6271 144.454 80.6024 144.353 80.5531 144.27C80.5037 144.183 80.4354 144.114 80.348 144.065C80.2607 144.015 80.1562 143.991 80.0347 143.991C79.9246 143.991 79.8278 144.014 79.7442 144.059C79.6607 144.101 79.5961 144.162 79.5506 144.241C79.505 144.317 79.4822 144.409 79.4822 144.515C79.4822 144.614 79.505 144.722 79.5506 144.839C79.5961 144.953 79.6607 145.065 79.7442 145.176L80.7353 146.537L81.1625 145.762H81.6296L80.9974 146.896L81.6695 147.813H81.1739L80.7695 147.272C80.4885 147.67 80.1468 147.87 79.7442 147.87ZM79.7727 147.465C79.917 147.465 80.0537 147.42 80.1828 147.329C80.3119 147.234 80.424 147.099 80.5189 146.924L79.6417 145.734C79.5088 145.749 79.4063 145.8 79.3341 145.888C79.2658 145.975 79.2316 146.093 79.2316 146.241V146.93C79.2316 147.093 79.2791 147.224 79.374 147.323C79.4727 147.418 79.6056 147.465 79.7727 147.465ZM85.88 147.813V143.655H88.2268V144.065H86.33V145.438H88.0274V145.842H86.33V147.403H88.2268V147.813H85.88ZM89.022 147.813L90.1327 146.201L89.0903 144.68H89.62L90.2808 145.694C90.3036 145.732 90.3263 145.776 90.3491 145.825C90.3757 145.87 90.3966 145.907 90.4118 145.933C90.427 145.907 90.446 145.87 90.4687 145.825C90.4953 145.776 90.52 145.732 90.5428 145.694L91.2035 144.68H91.7275L90.6852 146.207L91.7902 147.813H91.2605L90.5542 146.742C90.5276 146.704 90.501 146.658 90.4744 146.605C90.4516 146.552 90.4308 146.51 90.4118 146.48C90.3966 146.51 90.3738 146.552 90.3434 146.605C90.313 146.658 90.2846 146.704 90.258 146.742L89.546 147.813H89.022ZM92.6651 148.838V144.68H93.1151V145.233H93.2347L93.098 145.42C93.098 145.174 93.1778 144.98 93.3373 144.839C93.5006 144.695 93.7151 144.623 93.9809 144.623C94.2961 144.623 94.5467 144.727 94.7328 144.936C94.9226 145.141 95.0176 145.422 95.0176 145.779V146.708C95.0176 146.947 94.9739 147.154 94.8866 147.329C94.7992 147.5 94.6777 147.632 94.522 147.727C94.3701 147.822 94.1898 147.87 93.9809 147.87C93.7189 147.87 93.5062 147.798 93.343 147.653C93.1797 147.509 93.098 147.315 93.098 147.072L93.2177 147.26H93.1094L93.1151 147.898V148.838H92.6651ZM93.8385 147.477C94.0664 147.477 94.2429 147.408 94.3682 147.272C94.4973 147.135 94.5619 146.941 94.5619 146.691V145.802C94.5619 145.548 94.4973 145.354 94.3682 145.221C94.2429 145.084 94.0664 145.016 93.8385 145.016C93.6183 145.016 93.4417 145.086 93.3088 145.227C93.1797 145.364 93.1151 145.555 93.1151 145.802V146.691C93.1151 146.938 93.1797 147.131 93.3088 147.272C93.4417 147.408 93.6183 147.477 93.8385 147.477ZM97.2368 147.87C96.9937 147.87 96.783 147.822 96.6045 147.727C96.426 147.629 96.2874 147.49 96.1887 147.312C96.09 147.133 96.0406 146.926 96.0406 146.691V145.802C96.0406 145.563 96.09 145.356 96.1887 145.181C96.2874 145.003 96.426 144.866 96.6045 144.771C96.783 144.672 96.9937 144.623 97.2368 144.623C97.4798 144.623 97.6905 144.672 97.869 144.771C98.0475 144.866 98.1861 145.003 98.2848 145.181C98.3836 145.356 98.4329 145.563 98.4329 145.802V146.355H96.4849V146.691C96.4849 146.945 96.5495 147.143 96.6786 147.283C96.8115 147.42 96.9975 147.488 97.2368 147.488C97.438 147.488 97.6013 147.448 97.7266 147.368C97.8557 147.289 97.9374 147.173 97.9715 147.021H98.4215C98.3798 147.283 98.2525 147.49 98.0399 147.642C97.8272 147.794 97.5595 147.87 97.2368 147.87ZM97.9886 146.053V145.802C97.9886 145.548 97.9241 145.352 97.795 145.215C97.6659 145.075 97.4798 145.005 97.2368 145.005C96.9975 145.005 96.8115 145.075 96.6786 145.215C96.5495 145.352 96.4849 145.548 96.4849 145.802V146.001H98.0342L97.9886 146.053ZM99.4958 147.813V144.68H99.9458V145.261H100.06L99.9344 145.426C99.9344 145.176 100.01 144.98 100.162 144.839C100.318 144.695 100.529 144.623 100.795 144.623C101.106 144.623 101.355 144.722 101.541 144.919C101.727 145.113 101.82 145.377 101.82 145.711V147.813H101.37V145.762C101.37 145.523 101.307 145.339 101.182 145.21C101.057 145.081 100.886 145.016 100.669 145.016C100.445 145.016 100.269 145.084 100.139 145.221C100.01 145.358 99.9458 145.551 99.9458 145.802V147.813H99.4958ZM103.954 147.864C103.748 147.864 103.568 147.83 103.412 147.762C103.257 147.693 103.133 147.598 103.042 147.477C102.951 147.351 102.896 147.207 102.877 147.044H103.327C103.354 147.169 103.42 147.27 103.526 147.346C103.636 147.422 103.779 147.46 103.954 147.46H104.233C104.434 147.46 104.586 147.416 104.688 147.329C104.795 147.237 104.848 147.118 104.848 146.97C104.848 146.829 104.802 146.715 104.711 146.628C104.62 146.541 104.489 146.484 104.318 146.457L103.845 146.383C103.549 146.334 103.325 146.239 103.173 146.098C103.025 145.958 102.951 145.76 102.951 145.506C102.951 145.229 103.04 145.014 103.219 144.862C103.401 144.707 103.663 144.629 104.005 144.629H104.227C104.523 144.629 104.76 144.699 104.939 144.839C105.121 144.98 105.231 145.17 105.269 145.409H104.814C104.791 145.295 104.728 145.204 104.626 145.136C104.527 145.067 104.394 145.033 104.227 145.033H104.005C103.804 145.033 103.654 145.075 103.555 145.158C103.456 145.238 103.407 145.354 103.407 145.506C103.407 145.643 103.448 145.747 103.532 145.819C103.616 145.888 103.743 145.935 103.914 145.962L104.381 146.036C104.692 146.085 104.924 146.184 105.076 146.332C105.228 146.476 105.303 146.679 105.303 146.941C105.303 147.226 105.212 147.452 105.03 147.619C104.848 147.782 104.582 147.864 104.233 147.864H103.954ZM107.483 147.87C107.24 147.87 107.029 147.822 106.851 147.727C106.672 147.629 106.533 147.49 106.435 147.312C106.336 147.133 106.287 146.926 106.287 146.691V145.802C106.287 145.563 106.336 145.356 106.435 145.181C106.533 145.003 106.672 144.866 106.851 144.771C107.029 144.672 107.24 144.623 107.483 144.623C107.726 144.623 107.937 144.672 108.115 144.771C108.294 144.866 108.432 145.003 108.531 145.181C108.63 145.356 108.679 145.563 108.679 145.802V146.355H106.731V146.691C106.731 146.945 106.795 147.143 106.925 147.283C107.058 147.42 107.244 147.488 107.483 147.488C107.684 147.488 107.847 147.448 107.973 147.368C108.102 147.289 108.183 147.173 108.218 147.021H108.668C108.626 147.283 108.499 147.49 108.286 147.642C108.073 147.794 107.806 147.87 107.483 147.87ZM108.235 146.053V145.802C108.235 145.548 108.17 145.352 108.041 145.215C107.912 145.075 107.726 145.005 107.483 145.005C107.244 145.005 107.058 145.075 106.925 145.215C106.795 145.352 106.731 145.548 106.731 145.802V146.001H108.28L108.235 146.053ZM114.091 147.813V144.065H112.924V143.649H115.703V144.065H114.541V147.813H114.091ZM116.675 147.813V144.68H117.119V145.261H117.228L117.068 145.62C117.072 145.301 117.15 145.056 117.302 144.885C117.454 144.71 117.672 144.623 117.957 144.623C118.287 144.623 118.549 144.727 118.743 144.936C118.94 145.141 119.039 145.419 119.039 145.768V145.956H118.578V145.802C118.578 145.548 118.515 145.352 118.39 145.215C118.264 145.075 118.086 145.005 117.854 145.005C117.63 145.005 117.454 145.075 117.324 145.215C117.195 145.356 117.131 145.551 117.131 145.802V147.813H116.675ZM120.899 147.87C120.569 147.87 120.309 147.786 120.119 147.619C119.929 147.448 119.834 147.219 119.834 146.93C119.834 146.645 119.927 146.421 120.113 146.258C120.299 146.091 120.55 146.007 120.865 146.007H121.862V145.677C121.862 145.468 121.801 145.307 121.68 145.193C121.558 145.079 121.385 145.022 121.161 145.022C120.964 145.022 120.799 145.065 120.666 145.153C120.537 145.24 120.463 145.358 120.444 145.506H119.988C120.026 145.236 120.151 145.022 120.364 144.862C120.58 144.703 120.85 144.623 121.173 144.623C121.522 144.623 121.799 144.718 122.004 144.908C122.209 145.094 122.312 145.346 122.312 145.665V147.813H121.868V147.203H121.794L121.879 147.112C121.879 147.344 121.79 147.528 121.611 147.665C121.433 147.801 121.195 147.87 120.899 147.87ZM121.007 147.505C121.258 147.505 121.463 147.443 121.623 147.317C121.782 147.192 121.862 147.029 121.862 146.827V146.355H120.871C120.692 146.355 120.55 146.404 120.444 146.503C120.337 146.601 120.284 146.736 120.284 146.907C120.284 147.089 120.349 147.236 120.478 147.346C120.607 147.452 120.783 147.505 121.007 147.505ZM124.577 147.87C124.334 147.87 124.121 147.822 123.939 147.727C123.756 147.632 123.614 147.498 123.511 147.323C123.413 147.144 123.363 146.934 123.363 146.691V145.802C123.363 145.559 123.413 145.35 123.511 145.176C123.614 144.997 123.756 144.86 123.939 144.765C124.121 144.671 124.334 144.623 124.577 144.623C124.934 144.623 125.22 144.72 125.437 144.914C125.653 145.107 125.765 145.371 125.773 145.705H125.323C125.315 145.489 125.245 145.322 125.112 145.204C124.983 145.086 124.804 145.027 124.577 145.027C124.345 145.027 124.161 145.096 124.024 145.233C123.887 145.365 123.819 145.555 123.819 145.802V146.691C123.819 146.934 123.887 147.124 124.024 147.26C124.161 147.397 124.345 147.465 124.577 147.465C124.804 147.465 124.983 147.406 125.112 147.289C125.245 147.167 125.315 147 125.323 146.788H125.773C125.765 147.122 125.653 147.386 125.437 147.579C125.22 147.773 124.934 147.87 124.577 147.87ZM126.836 147.813V143.655H127.286V145.996H127.929L128.858 144.68H129.382L128.328 146.172L129.399 147.813H128.869L127.935 146.389H127.286V147.813H126.836ZM131.39 147.87C131.147 147.87 130.936 147.822 130.758 147.727C130.579 147.629 130.441 147.49 130.342 147.312C130.243 147.133 130.194 146.926 130.194 146.691V145.802C130.194 145.563 130.243 145.356 130.342 145.181C130.441 145.003 130.579 144.866 130.758 144.771C130.936 144.672 131.147 144.623 131.39 144.623C131.633 144.623 131.844 144.672 132.022 144.771C132.201 144.866 132.34 145.003 132.438 145.181C132.537 145.356 132.586 145.563 132.586 145.802V146.355H130.638V146.691C130.638 146.945 130.703 147.143 130.832 147.283C130.965 147.42 131.151 147.488 131.39 147.488C131.591 147.488 131.755 147.448 131.88 147.368C132.009 147.289 132.091 147.173 132.125 147.021H132.575C132.533 147.283 132.406 147.49 132.193 147.642C131.981 147.794 131.713 147.87 131.39 147.87ZM132.142 146.053V145.802C132.142 145.548 132.078 145.352 131.948 145.215C131.819 145.075 131.633 145.005 131.39 145.005C131.151 145.005 130.965 145.075 130.832 145.215C130.703 145.352 130.638 145.548 130.638 145.802V146.001H132.188L132.142 146.053ZM133.752 147.813V144.68H134.196V145.261H134.304L134.145 145.62C134.149 145.301 134.226 145.056 134.378 144.885C134.53 144.71 134.749 144.623 135.033 144.623C135.364 144.623 135.626 144.727 135.819 144.936C136.017 145.141 136.116 145.419 136.116 145.768V145.956H135.654V145.802C135.654 145.548 135.592 145.352 135.466 145.215C135.341 145.075 135.163 145.005 134.931 145.005C134.707 145.005 134.53 145.075 134.401 145.215C134.272 145.356 134.207 145.551 134.207 145.802V147.813H133.752Z" fill="#37374F"/>
</g>
<defs>
<linearGradient id="paint0_linear_1802_1393" x1="59.8371" y1="58.4859" x2="108.75" y2="108.472" gradientUnits="userSpaceOnUse">
<stop stop-color="#63C94E"/>
<stop offset="1" stop-color="#15614E"/>
</linearGradient>
<linearGradient id="paint1_linear_1802_1393" x1="71.6649" y1="46.9114" x2="120.578" y2="96.8971" gradientUnits="userSpaceOnUse">
<stop stop-color="#63C94E"/>
<stop offset="1" stop-color="#15614E"/>
</linearGradient>
<linearGradient id="paint2_linear_1802_1393" x1="72.2712" y1="46.32" x2="121.183" y2="96.3044" gradientUnits="userSpaceOnUse">
<stop stop-color="#63C94E"/>
<stop offset="1" stop-color="#15614E"/>
</linearGradient>
<linearGradient id="paint3_linear_1802_1393" x1="76.6646" y1="42.0208" x2="125.577" y2="92.0055" gradientUnits="userSpaceOnUse">
<stop stop-color="#63C94E"/>
<stop offset="1" stop-color="#15614E"/>
</linearGradient>
<linearGradient id="paint4_linear_1802_1393" x1="75.0069" y1="43.6418" x2="123.922" y2="93.6292" gradientUnits="userSpaceOnUse">
<stop stop-color="#63C94E"/>
<stop offset="1" stop-color="#15614E"/>
</linearGradient>
<linearGradient id="paint5_linear_1802_1393" x1="85.0477" y1="33.8185" x2="133.958" y2="83.8014" gradientUnits="userSpaceOnUse">
<stop stop-color="#63C94E"/>
<stop offset="1" stop-color="#15614E"/>
</linearGradient>
<clipPath id="clip0_1802_1393">
<rect width="192" height="192" fill="white"/>
</clipPath>
</defs>
</svg>
