<svg width="512" height="512" viewBox="0 0 512 512" fill="none" xmlns="http://www.w3.org/2000/svg">
<g clip-path="url(#clip0_1802_1361)">
<path d="M238.221 217.429H230.663V209.869C230.663 206.813 228.185 204.335 225.129 204.335C222.074 204.335 219.598 206.813 219.598 209.869V217.429H212.036C208.982 217.429 206.504 219.907 206.504 222.963C206.504 226.018 208.982 228.494 212.036 228.494H219.598V236.055C219.598 239.11 222.074 241.588 225.129 241.588C228.185 241.588 230.663 239.11 230.663 236.055V228.494H238.221C241.277 228.494 243.753 226.018 243.753 222.963C243.753 219.907 241.277 217.429 238.221 217.429Z" fill="url(#paint0_linear_1802_1361)"/>
<path d="M299.965 217.429H273.78C270.724 217.429 268.248 219.907 268.248 222.963C268.248 226.018 270.724 228.494 273.78 228.494H299.965C303.021 228.494 305.497 226.018 305.497 222.963C305.497 219.907 303.021 217.429 299.965 217.429Z" fill="url(#paint1_linear_1802_1361)"/>
<path d="M313.457 113.099H198.543C188.824 113.099 180.915 121.007 180.915 130.729V245.643C180.915 255.363 188.824 263.271 198.543 263.271H291.285C295.253 263.271 299.039 264.755 301.765 267.47C307.023 272.699 314.537 280.192 316.245 281.982C318.933 284.798 322.005 285.95 324.949 285.95C327.893 285.95 331.087 282.878 331.087 277.502C331.087 273.151 331.087 253.122 331.087 245.644C331.087 243.884 331.087 242.814 331.087 242.814V130.729C331.087 121.007 323.178 113.099 313.457 113.099ZM198.543 124.165H313.457C317.076 124.165 320.02 127.109 320.02 130.729V182.653H191.978V130.729C191.978 127.109 194.922 124.165 198.543 124.165ZM198.543 252.207C194.924 252.207 191.98 249.261 191.98 245.643V193.719H320.02V245.643C320.02 249.261 317.076 252.207 313.457 252.207H198.543Z" fill="url(#paint2_linear_1802_1361)"/>
<path d="M256.001 172.121C260.467 172.121 264.935 170.567 268.579 167.453C270.071 166.177 270.249 163.931 268.973 162.437C267.695 160.943 265.451 160.769 263.957 162.043C259.347 165.983 252.654 165.983 248.043 162.043C246.549 160.767 244.306 160.943 243.03 162.437C241.752 163.931 241.93 166.177 243.424 167.453C247.067 170.567 251.535 172.121 256.001 172.121Z" fill="url(#paint3_linear_1802_1361)"/>
<path d="M229.795 152.34C232.85 152.34 235.328 149.862 235.328 146.809C235.328 143.753 232.85 141.275 229.795 141.275C226.739 141.275 224.263 143.753 224.263 146.809C224.263 149.863 226.739 152.34 229.795 152.34Z" fill="url(#paint4_linear_1802_1361)"/>
<path d="M282.205 152.34C285.261 152.34 287.737 149.862 287.737 146.809C287.737 143.753 285.261 141.275 282.205 141.275C279.15 141.275 276.671 143.753 276.671 146.809C276.67 149.863 279.149 152.34 282.205 152.34Z" fill="url(#paint5_linear_1802_1361)"/>
<path d="M108.484 365.38V324.414H133.736V331.597H116.733V340.801H131.772V347.984H116.733V358.197H133.736V365.38H108.484ZM139.102 365.38L149.764 349.387L139.831 334.516H149.203L153.019 340.688C153.318 341.175 153.599 341.717 153.861 342.316C154.123 342.914 154.328 343.401 154.478 343.775C154.628 343.401 154.833 342.914 155.095 342.316C155.395 341.717 155.675 341.175 155.937 340.688L159.753 334.516H169.125L159.248 349.387L169.854 365.38H160.483L155.993 358.085C155.694 357.561 155.395 357.019 155.095 356.457C154.833 355.859 154.628 355.373 154.478 354.998C154.328 355.373 154.123 355.859 153.861 356.457C153.599 357.019 153.318 357.561 153.019 358.085L148.473 365.38H139.102ZM174.995 375.481V334.516H183.132V340.408H185.096L183.132 342.372C183.132 339.716 183.862 337.658 185.321 336.199C186.78 334.703 188.781 333.954 191.325 333.954C194.43 333.954 196.918 335.058 198.789 337.265C200.659 339.435 201.595 342.353 201.595 346.02V353.876C201.595 356.308 201.164 358.44 200.304 360.273C199.481 362.069 198.302 363.472 196.769 364.482C195.235 365.455 193.42 365.941 191.325 365.941C188.781 365.941 186.78 365.212 185.321 363.753C183.862 362.256 183.132 360.18 183.132 357.524L185.096 359.488H183.132L183.413 367.064V375.481H174.995ZM188.295 358.646C189.866 358.646 191.063 358.216 191.886 357.355C192.747 356.457 193.177 355.204 193.177 353.595V346.3C193.177 344.654 192.747 343.401 191.886 342.54C191.063 341.68 189.866 341.25 188.295 341.25C186.761 341.25 185.564 341.699 184.703 342.596C183.843 343.457 183.413 344.692 183.413 346.3V353.595C183.413 355.204 183.843 356.457 184.703 357.355C185.564 358.216 186.761 358.646 188.295 358.646ZM221.831 365.941C219.1 365.941 216.706 365.436 214.648 364.426C212.628 363.379 211.057 361.938 209.934 360.105C208.849 358.235 208.307 356.065 208.307 353.595V346.3C208.307 343.831 208.849 341.68 209.934 339.847C211.057 337.976 212.628 336.536 214.648 335.526C216.706 334.478 219.1 333.954 221.831 333.954C224.562 333.954 226.919 334.478 228.902 335.526C230.922 336.536 232.475 337.976 233.56 339.847C234.682 341.68 235.243 343.831 235.243 346.3V351.912H216.332V353.595C216.332 355.541 216.799 357.019 217.735 358.029C218.67 359.001 220.073 359.488 221.943 359.488C223.253 359.488 224.3 359.263 225.086 358.814C225.909 358.365 226.452 357.748 226.713 356.963H234.963C234.289 359.656 232.755 361.826 230.361 363.472C228.004 365.118 225.161 365.941 221.831 365.941ZM227.218 347.591V346.188C227.218 344.28 226.77 342.821 225.872 341.811C225.011 340.801 223.664 340.296 221.831 340.296C219.998 340.296 218.614 340.819 217.678 341.867C216.781 342.914 216.332 344.392 216.332 346.3V347.142L227.78 347.03L227.218 347.591ZM242.292 365.38V334.516H250.429V340.408H252.898L250.429 342.372C250.429 339.753 251.177 337.696 252.674 336.199C254.17 334.703 256.191 333.954 258.735 333.954C261.727 333.954 264.122 335.002 265.918 337.097C267.751 339.192 268.667 341.979 268.667 345.458V365.38H260.25V346.3C260.25 344.692 259.819 343.457 258.959 342.596C258.136 341.699 256.957 341.25 255.424 341.25C253.927 341.25 252.767 341.699 251.944 342.596C251.121 343.457 250.71 344.692 250.71 346.3V365.38H242.292ZM287.781 365.941C285.237 365.941 283.011 365.549 281.103 364.763C279.196 363.94 277.699 362.817 276.614 361.396C275.567 359.974 275.043 358.309 275.043 356.401H283.46C283.46 357.299 283.853 358.029 284.639 358.59C285.462 359.114 286.509 359.376 287.781 359.376H290.251C291.785 359.376 292.944 359.095 293.73 358.534C294.553 357.973 294.965 357.187 294.965 356.177C294.965 355.242 294.609 354.531 293.898 354.044C293.187 353.521 292.084 353.165 290.587 352.978L286.996 352.529C283.142 352.043 280.337 351.108 278.578 349.723C276.82 348.339 275.941 346.225 275.941 343.382C275.941 340.389 276.97 338.07 279.027 336.424C281.085 334.777 284.096 333.954 288.062 333.954H290.195C293.973 333.954 296.985 334.777 299.229 336.424C301.474 338.07 302.596 340.277 302.596 343.045H294.179C294.179 342.297 293.805 341.699 293.057 341.25C292.346 340.763 291.392 340.52 290.195 340.52H288.062C286.678 340.52 285.668 340.763 285.032 341.25C284.396 341.699 284.078 342.391 284.078 343.326C284.078 344.186 284.358 344.841 284.919 345.29C285.518 345.739 286.453 346.057 287.725 346.244L291.597 346.749C295.488 347.236 298.369 348.208 300.24 349.667C302.148 351.126 303.102 353.296 303.102 356.177C303.102 359.319 302.017 361.733 299.847 363.416C297.677 365.1 294.478 365.941 290.251 365.941H287.781ZM309.814 365.38V357.748H320.476V342.091H311.217V334.516H328.332V357.748H337.311V365.38H309.814ZM323.843 329.633C322.309 329.633 321.075 329.241 320.139 328.455C319.241 327.669 318.792 326.603 318.792 325.256C318.792 323.909 319.241 322.843 320.139 322.057C321.075 321.272 322.309 320.879 323.843 320.879C325.377 320.879 326.593 321.272 327.491 322.057C328.426 322.843 328.894 323.909 328.894 325.256C328.894 326.603 328.426 327.669 327.491 328.455C326.593 329.241 325.377 329.633 323.843 329.633ZM350.477 365.38V345.739H342.284V338.163H350.477V333.954C350.477 331.074 351.45 328.773 353.395 327.052C355.378 325.294 357.959 324.414 361.139 324.414H370.174V331.71H361.42C360.672 331.71 360.054 331.953 359.568 332.439C359.119 332.888 358.895 333.487 358.895 334.235V338.163H370.174V345.739H358.895V365.38H350.477ZM381.993 375.481L386.202 363.865L374.642 334.516H383.789L388.447 347.984C388.783 348.994 389.12 350.228 389.457 351.687C389.831 353.109 390.111 354.269 390.298 355.167C390.485 354.269 390.747 353.109 391.084 351.687C391.458 350.228 391.814 348.994 392.15 347.984L396.64 334.516H405.394L390.803 375.481H381.993Z" fill="#37374F"/>
<path d="M147.106 393.167V382.079H150.159C151.151 382.079 151.931 382.338 152.498 382.854C153.065 383.36 153.348 384.059 153.348 384.95C153.348 385.456 153.242 385.902 153.029 386.287C152.827 386.661 152.533 386.955 152.148 387.168C151.774 387.37 151.318 387.466 150.781 387.456V387.244C151.358 387.244 151.855 387.36 152.27 387.593C152.695 387.816 153.024 388.145 153.257 388.58C153.49 389.006 153.606 389.512 153.606 390.099C153.606 390.727 153.475 391.274 153.212 391.74C152.948 392.195 152.574 392.55 152.088 392.803C151.602 393.046 151.019 393.167 150.341 393.167H147.106ZM148.275 392.074H150.234C150.913 392.074 151.445 391.897 151.829 391.542C152.224 391.178 152.422 390.687 152.422 390.069C152.422 389.431 152.224 388.92 151.829 388.535C151.445 388.14 150.913 387.942 150.234 387.942H148.275V392.074ZM148.275 386.894H150.159C150.776 386.894 151.262 386.727 151.617 386.393C151.971 386.059 152.148 385.603 152.148 385.026C152.148 384.449 151.971 383.998 151.617 383.674C151.272 383.34 150.786 383.173 150.159 383.173H148.275V386.894ZM159.266 393.319C158.324 393.319 157.57 393.036 157.003 392.469C156.446 391.902 156.168 391.132 156.168 390.16V384.813H157.367V390.16C157.367 390.818 157.535 391.335 157.869 391.709C158.213 392.074 158.679 392.256 159.266 392.256C159.864 392.256 160.334 392.074 160.679 391.709C161.023 391.335 161.195 390.818 161.195 390.16V384.813H162.395V390.16C162.395 391.132 162.112 391.902 161.545 392.469C160.977 393.036 160.218 393.319 159.266 393.319ZM167.979 393.319C167.148 393.319 166.475 393.041 165.959 392.484C165.452 391.927 165.199 391.178 165.199 390.236V387.76C165.199 386.808 165.452 386.054 165.959 385.497C166.465 384.94 167.138 384.661 167.979 384.661C168.677 384.661 169.239 384.854 169.665 385.239C170.1 385.623 170.318 386.14 170.318 386.788L169.999 386.287H170.288L170.272 384.464V382.079H171.472V393.167H170.272V391.694H169.953L170.318 391.193C170.318 391.851 170.1 392.373 169.665 392.757C169.239 393.132 168.677 393.319 167.979 393.319ZM168.359 392.271C168.956 392.271 169.422 392.089 169.756 391.724C170.1 391.35 170.272 390.833 170.272 390.175V387.806C170.272 387.147 170.1 386.636 169.756 386.272C169.422 385.897 168.956 385.71 168.359 385.71C167.751 385.71 167.275 385.892 166.931 386.256C166.586 386.621 166.414 387.137 166.414 387.806V390.175C166.414 390.843 166.586 391.36 166.931 391.724C167.275 392.089 167.751 392.271 168.359 392.271ZM175.431 395.901V394.808H177.967C178.443 394.808 178.793 394.696 179.015 394.474C179.248 394.251 179.365 393.912 179.365 393.456V392.484L179.395 390.904H179.122L179.41 390.555C179.41 391.183 179.203 391.684 178.788 392.059C178.372 392.433 177.815 392.621 177.117 392.621C176.266 392.621 175.593 392.342 175.097 391.785C174.6 391.218 174.352 390.464 174.352 389.522V387.745C174.352 386.803 174.6 386.054 175.097 385.497C175.593 384.94 176.266 384.661 177.117 384.661C177.815 384.661 178.372 384.849 178.788 385.223C179.203 385.588 179.41 386.084 179.41 386.712L179.137 386.363H179.38V384.813H180.565V393.456C180.565 394.226 180.337 394.823 179.881 395.248C179.436 395.684 178.798 395.901 177.967 395.901H175.431ZM177.466 391.573C178.064 391.573 178.529 391.39 178.864 391.026C179.208 390.651 179.38 390.135 179.38 389.476V387.806C179.38 387.147 179.208 386.636 178.864 386.272C178.529 385.897 178.064 385.71 177.466 385.71C176.859 385.71 176.388 385.892 176.054 386.256C175.719 386.621 175.552 387.137 175.552 387.806V389.476C175.552 390.145 175.719 390.661 176.054 391.026C176.388 391.39 176.859 391.573 177.466 391.573ZM186.604 393.319C185.956 393.319 185.394 393.193 184.918 392.94C184.442 392.676 184.073 392.307 183.809 391.831C183.546 391.355 183.414 390.803 183.414 390.175V387.806C183.414 387.168 183.546 386.616 183.809 386.15C184.073 385.674 184.442 385.31 184.918 385.056C185.394 384.793 185.956 384.661 186.604 384.661C187.252 384.661 187.814 384.793 188.29 385.056C188.766 385.31 189.136 385.674 189.399 386.15C189.662 386.616 189.794 387.168 189.794 387.806V389.279H184.599V390.175C184.599 390.854 184.771 391.38 185.116 391.755C185.47 392.119 185.966 392.302 186.604 392.302C187.141 392.302 187.576 392.195 187.91 391.983C188.255 391.77 188.472 391.461 188.563 391.056H189.763C189.652 391.755 189.313 392.307 188.746 392.712C188.179 393.117 187.465 393.319 186.604 393.319ZM188.609 388.474V387.806C188.609 387.127 188.437 386.606 188.093 386.241C187.748 385.866 187.252 385.679 186.604 385.679C185.966 385.679 185.47 385.866 185.116 386.241C184.771 386.606 184.599 387.127 184.599 387.806V388.337H188.731L188.609 388.474ZM196.623 393.167C195.924 393.167 195.383 392.985 194.998 392.621C194.613 392.246 194.421 391.719 194.421 391.041V385.907H192.051V384.813H194.421V382.459H195.636V384.813H198.993V385.907H195.636V391.041C195.636 391.73 195.965 392.074 196.623 392.074H198.841V393.167H196.623ZM212.818 393.319C212.018 393.319 211.39 393.097 210.935 392.651C210.479 392.205 210.251 391.593 210.251 390.813V388.975C210.251 388.388 210.398 387.902 210.692 387.517C210.995 387.132 211.421 386.874 211.967 386.742L211.861 386.697C211.527 386.251 211.284 385.841 211.132 385.466C210.99 385.092 210.919 384.717 210.919 384.342C210.919 383.867 211.031 383.446 211.254 383.082C211.476 382.717 211.785 382.434 212.18 382.231C212.585 382.029 213.056 381.927 213.593 381.927C214.16 381.927 214.651 382.039 215.066 382.262C215.491 382.474 215.815 382.773 216.038 383.158C216.271 383.543 216.387 383.998 216.387 384.525H215.172C215.172 384.211 215.107 383.943 214.975 383.72C214.843 383.487 214.661 383.305 214.428 383.173C214.195 383.041 213.917 382.975 213.593 382.975C213.299 382.975 213.041 383.036 212.818 383.158C212.595 383.269 212.423 383.431 212.302 383.644C212.18 383.846 212.119 384.089 212.119 384.373C212.119 384.636 212.18 384.925 212.302 385.239C212.423 385.542 212.595 385.841 212.818 386.135L215.461 389.765L216.6 387.699H217.846L216.16 390.722L217.952 393.167H216.631L215.552 391.724C214.803 392.788 213.891 393.319 212.818 393.319ZM212.894 392.241C213.279 392.241 213.643 392.119 213.988 391.876C214.332 391.623 214.631 391.264 214.884 390.798L212.545 387.623C212.19 387.664 211.917 387.801 211.724 388.033C211.542 388.266 211.451 388.58 211.451 388.975V390.813C211.451 391.249 211.578 391.598 211.831 391.861C212.094 392.114 212.448 392.241 212.894 392.241ZM229.18 393.167V382.079H235.438V383.173H230.38V386.834H234.906V387.912H230.38V392.074H235.438V393.167H229.18ZM237.559 393.167L240.521 388.869L237.741 384.813H239.153L240.915 387.517C240.976 387.618 241.037 387.735 241.098 387.866C241.169 387.988 241.224 388.084 241.265 388.155C241.305 388.084 241.356 387.988 241.417 387.866C241.488 387.735 241.553 387.618 241.614 387.517L243.376 384.813H244.773L241.994 388.884L244.941 393.167H243.528L241.645 390.312C241.574 390.211 241.503 390.089 241.432 389.947C241.371 389.806 241.315 389.694 241.265 389.613C241.224 389.694 241.164 389.806 241.083 389.947C241.001 390.089 240.926 390.211 240.855 390.312L238.956 393.167H237.559ZM247.274 395.901V384.813H248.474V386.287H248.793L248.428 386.788C248.428 386.13 248.641 385.613 249.066 385.239C249.502 384.854 250.074 384.661 250.782 384.661C251.623 384.661 252.291 384.94 252.787 385.497C253.294 386.044 253.547 386.793 253.547 387.745V390.221C253.547 390.859 253.43 391.411 253.198 391.876C252.965 392.332 252.641 392.686 252.225 392.94C251.82 393.193 251.339 393.319 250.782 393.319C250.084 393.319 249.517 393.127 249.081 392.742C248.646 392.357 248.428 391.841 248.428 391.193L248.747 391.694H248.459L248.474 393.395V395.901H247.274ZM250.403 392.271C251.01 392.271 251.481 392.089 251.815 391.724C252.16 391.36 252.332 390.843 252.332 390.175V387.806C252.332 387.127 252.16 386.611 251.815 386.256C251.481 385.892 251.01 385.71 250.403 385.71C249.815 385.71 249.345 385.897 248.99 386.272C248.646 386.636 248.474 387.147 248.474 387.806V390.175C248.474 390.833 248.646 391.35 248.99 391.724C249.345 392.089 249.815 392.271 250.403 392.271ZM259.465 393.319C258.817 393.319 258.255 393.193 257.779 392.94C257.303 392.676 256.933 392.307 256.67 391.831C256.407 391.355 256.275 390.803 256.275 390.175V387.806C256.275 387.168 256.407 386.616 256.67 386.15C256.933 385.674 257.303 385.31 257.779 385.056C258.255 384.793 258.817 384.661 259.465 384.661C260.113 384.661 260.675 384.793 261.151 385.056C261.627 385.31 261.996 385.674 262.26 386.15C262.523 386.616 262.654 387.168 262.654 387.806V389.279H257.46V390.175C257.46 390.854 257.632 391.38 257.976 391.755C258.331 392.119 258.827 392.302 259.465 392.302C260.001 392.302 260.437 392.195 260.771 391.983C261.115 391.77 261.333 391.461 261.424 391.056H262.624C262.513 391.755 262.173 392.307 261.606 392.712C261.039 393.117 260.325 393.319 259.465 393.319ZM261.47 388.474V387.806C261.47 387.127 261.298 386.606 260.953 386.241C260.609 385.866 260.113 385.679 259.465 385.679C258.827 385.679 258.331 385.866 257.976 386.241C257.632 386.606 257.46 387.127 257.46 387.806V388.337H261.591L261.47 388.474ZM265.489 393.167V384.813H266.689V386.363H266.993L266.658 386.803C266.658 386.135 266.861 385.613 267.266 385.239C267.681 384.854 268.243 384.661 268.952 384.661C269.782 384.661 270.446 384.925 270.942 385.451C271.438 385.968 271.686 386.672 271.686 387.563V393.167H270.486V387.699C270.486 387.061 270.319 386.57 269.985 386.226C269.651 385.882 269.195 385.71 268.618 385.71C268.02 385.71 267.55 385.892 267.205 386.256C266.861 386.621 266.689 387.137 266.689 387.806V393.167H265.489ZM277.376 393.304C276.829 393.304 276.348 393.213 275.933 393.031C275.518 392.848 275.189 392.595 274.946 392.271C274.703 391.937 274.556 391.552 274.505 391.117H275.705C275.776 391.451 275.953 391.719 276.237 391.922C276.531 392.124 276.91 392.226 277.376 392.226H278.12C278.657 392.226 279.062 392.109 279.336 391.876C279.619 391.633 279.761 391.314 279.761 390.919C279.761 390.545 279.639 390.241 279.396 390.008C279.153 389.775 278.804 389.623 278.348 389.552L277.088 389.355C276.298 389.223 275.7 388.97 275.295 388.595C274.9 388.221 274.703 387.694 274.703 387.016C274.703 386.277 274.941 385.704 275.417 385.299C275.903 384.884 276.601 384.677 277.513 384.677H278.105C278.895 384.677 279.528 384.864 280.004 385.239C280.49 385.613 280.784 386.12 280.885 386.758H279.67C279.609 386.454 279.442 386.211 279.168 386.028C278.905 385.846 278.551 385.755 278.105 385.755H277.513C276.976 385.755 276.576 385.866 276.313 386.089C276.05 386.302 275.918 386.611 275.918 387.016C275.918 387.38 276.029 387.659 276.252 387.851C276.475 388.033 276.814 388.16 277.27 388.231L278.515 388.428C279.346 388.56 279.963 388.823 280.368 389.218C280.773 389.603 280.976 390.145 280.976 390.843C280.976 391.603 280.733 392.205 280.247 392.651C279.761 393.086 279.052 393.304 278.12 393.304H277.376ZM286.788 393.319C286.139 393.319 285.577 393.193 285.102 392.94C284.626 392.676 284.256 392.307 283.993 391.831C283.729 391.355 283.598 390.803 283.598 390.175V387.806C283.598 387.168 283.729 386.616 283.993 386.15C284.256 385.674 284.626 385.31 285.102 385.056C285.577 384.793 286.139 384.661 286.788 384.661C287.436 384.661 287.998 384.793 288.474 385.056C288.949 385.31 289.319 385.674 289.582 386.15C289.846 386.616 289.977 387.168 289.977 387.806V389.279H284.783V390.175C284.783 390.854 284.955 391.38 285.299 391.755C285.653 392.119 286.15 392.302 286.788 392.302C287.324 392.302 287.76 392.195 288.094 391.983C288.438 391.77 288.656 391.461 288.747 391.056H289.947C289.835 391.755 289.496 392.307 288.929 392.712C288.362 393.117 287.648 393.319 286.788 393.319ZM288.792 388.474V387.806C288.792 387.127 288.62 386.606 288.276 386.241C287.932 385.866 287.436 385.679 286.788 385.679C286.15 385.679 285.653 385.866 285.299 386.241C284.955 386.606 284.783 387.127 284.783 387.806V388.337H288.914L288.792 388.474ZM304.41 393.167V383.173H301.297V382.064H308.709V383.173H305.61V393.167H304.41ZM311.3 393.167V384.813H312.485V386.363H312.774L312.348 387.32C312.358 386.469 312.566 385.816 312.971 385.36C313.376 384.894 313.958 384.661 314.718 384.661C315.599 384.661 316.298 384.94 316.814 385.497C317.34 386.044 317.604 386.783 317.604 387.714V388.216H316.373V387.806C316.373 387.127 316.206 386.606 315.872 386.241C315.538 385.866 315.062 385.679 314.444 385.679C313.847 385.679 313.376 385.866 313.032 386.241C312.688 386.616 312.515 387.137 312.515 387.806V393.167H311.3ZM322.565 393.319C321.684 393.319 320.99 393.097 320.484 392.651C319.977 392.195 319.724 391.583 319.724 390.813C319.724 390.054 319.972 389.456 320.469 389.021C320.965 388.575 321.633 388.352 322.474 388.352H325.132V387.471C325.132 386.915 324.97 386.484 324.646 386.18C324.322 385.877 323.861 385.725 323.263 385.725C322.737 385.725 322.296 385.841 321.942 386.074C321.598 386.307 321.4 386.621 321.35 387.016H320.134C320.236 386.297 320.57 385.725 321.137 385.299C321.714 384.874 322.433 384.661 323.294 384.661C324.225 384.661 324.965 384.915 325.511 385.421C326.058 385.917 326.332 386.59 326.332 387.441V393.167H325.147V391.542H324.949L325.177 391.299C325.177 391.917 324.939 392.408 324.463 392.773C323.987 393.137 323.355 393.319 322.565 393.319ZM322.853 392.347C323.522 392.347 324.068 392.18 324.494 391.846C324.919 391.512 325.132 391.076 325.132 390.54V389.279H322.489C322.013 389.279 321.633 389.411 321.35 389.674C321.066 389.937 320.924 390.297 320.924 390.752C320.924 391.238 321.096 391.628 321.441 391.922C321.785 392.205 322.256 392.347 322.853 392.347ZM332.371 393.319C331.723 393.319 331.156 393.193 330.67 392.94C330.184 392.686 329.804 392.327 329.531 391.861C329.267 391.385 329.136 390.823 329.136 390.175V387.806C329.136 387.158 329.267 386.601 329.531 386.135C329.804 385.659 330.184 385.294 330.67 385.041C331.156 384.788 331.723 384.661 332.371 384.661C333.323 384.661 334.087 384.92 334.665 385.436C335.242 385.953 335.54 386.656 335.561 387.547H334.361C334.341 386.97 334.153 386.525 333.799 386.211C333.454 385.897 332.979 385.74 332.371 385.74C331.753 385.74 331.262 385.922 330.898 386.287C330.533 386.641 330.351 387.147 330.351 387.806V390.175C330.351 390.823 330.533 391.33 330.898 391.694C331.262 392.059 331.753 392.241 332.371 392.241C332.979 392.241 333.454 392.084 333.799 391.77C334.153 391.446 334.341 391 334.361 390.433H335.561C335.54 391.324 335.242 392.028 334.665 392.545C334.087 393.061 333.323 393.319 332.371 393.319ZM338.395 393.167V382.079H339.595V388.322H341.311L343.787 384.813H345.185L342.375 388.793L345.23 393.167H343.818L341.327 389.37H339.595V393.167H338.395ZM350.541 393.319C349.893 393.319 349.331 393.193 348.855 392.94C348.379 392.676 348.009 392.307 347.746 391.831C347.483 391.355 347.351 390.803 347.351 390.175V387.806C347.351 387.168 347.483 386.616 347.746 386.15C348.009 385.674 348.379 385.31 348.855 385.056C349.331 384.793 349.893 384.661 350.541 384.661C351.189 384.661 351.751 384.793 352.227 385.056C352.703 385.31 353.072 385.674 353.335 386.15C353.599 386.616 353.73 387.168 353.73 387.806V389.279H348.536V390.175C348.536 390.854 348.708 391.38 349.052 391.755C349.406 392.119 349.903 392.302 350.541 392.302C351.077 392.302 351.513 392.195 351.847 391.983C352.191 391.77 352.409 391.461 352.5 391.056H353.7C353.589 391.755 353.249 392.307 352.682 392.712C352.115 393.117 351.401 393.319 350.541 393.319ZM352.546 388.474V387.806C352.546 387.127 352.373 386.606 352.029 386.241C351.685 385.866 351.189 385.679 350.541 385.679C349.903 385.679 349.406 385.866 349.052 386.241C348.708 386.606 348.536 387.127 348.536 387.806V388.337H352.667L352.546 388.474ZM356.838 393.167V384.813H358.023V386.363H358.312L357.886 387.32C357.896 386.469 358.104 385.816 358.509 385.36C358.914 384.894 359.496 384.661 360.256 384.661C361.137 384.661 361.835 384.94 362.352 385.497C362.878 386.044 363.142 386.783 363.142 387.714V388.216H361.911V387.806C361.911 387.127 361.744 386.606 361.41 386.241C361.076 385.866 360.6 385.679 359.982 385.679C359.385 385.679 358.914 385.866 358.57 386.241C358.225 386.616 358.053 387.137 358.053 387.806V393.167H356.838Z" fill="#37374F"/>
</g>
<defs>
<linearGradient id="paint0_linear_1802_1361" x1="159.566" y1="155.962" x2="290.001" y2="289.257" gradientUnits="userSpaceOnUse">
<stop stop-color="#63C94E"/>
<stop offset="1" stop-color="#15614E"/>
</linearGradient>
<linearGradient id="paint1_linear_1802_1361" x1="191.106" y1="125.097" x2="321.542" y2="258.392" gradientUnits="userSpaceOnUse">
<stop stop-color="#63C94E"/>
<stop offset="1" stop-color="#15614E"/>
</linearGradient>
<linearGradient id="paint2_linear_1802_1361" x1="192.723" y1="123.52" x2="323.155" y2="256.812" gradientUnits="userSpaceOnUse">
<stop stop-color="#63C94E"/>
<stop offset="1" stop-color="#15614E"/>
</linearGradient>
<linearGradient id="paint3_linear_1802_1361" x1="204.439" y1="112.055" x2="334.871" y2="245.348" gradientUnits="userSpaceOnUse">
<stop stop-color="#63C94E"/>
<stop offset="1" stop-color="#15614E"/>
</linearGradient>
<linearGradient id="paint4_linear_1802_1361" x1="200.018" y1="116.378" x2="330.458" y2="249.678" gradientUnits="userSpaceOnUse">
<stop stop-color="#63C94E"/>
<stop offset="1" stop-color="#15614E"/>
</linearGradient>
<linearGradient id="paint5_linear_1802_1361" x1="226.794" y1="90.1828" x2="357.222" y2="223.47" gradientUnits="userSpaceOnUse">
<stop stop-color="#63C94E"/>
<stop offset="1" stop-color="#15614E"/>
</linearGradient>
<clipPath id="clip0_1802_1361">
<rect width="512" height="512" fill="white"/>
</clipPath>
</defs>
</svg>
